<svg width="100" height="100" viewBox="0 0 100 100" fill="none" xmlns="http://www.w3.org/2000/svg">
<g clip-path="url(#clip0_50_33)">
<mask id="mask0_50_33" style="mask-type:alpha" maskUnits="userSpaceOnUse" x="0" y="0" width="100" height="100">
<path d="M0 50C0 22.3858 22.3858 0 50 0C77.6142 0 100 22.3858 100 50C100 77.6142 77.6142 100 50 100C22.3858 100 0 77.6142 0 50Z" fill="white"/>
</mask>
<g mask="url(#mask0_50_33)">
<path d="M101 51C101 78.6142 78.6142 101 51 101C23.3858 101 1 78.6142 1 51C1 23.3858 23.3858 1 51 1C78.6142 1 101 23.3858 101 51Z" fill="black"/>
<path d="M49.9999 -1C37.8899 -0.999485 26.1752 3.41992 16.9519 11.4674C7.72868 19.515 1.59869 30.6655 -0.341165 42.9238C-2.28103 55.1821 0.0958242 67.7483 6.36409 78.3739C12.6323 88.9995 22.383 96.9912 33.8713 100.919C36.4213 101.377 37.3775 99.8077 37.3775 98.4347C37.3775 97.1926 37.3138 93.074 37.3138 88.6939C24.5 91.1127 21.1851 85.4907 20.1651 82.5489C19.0333 79.6877 17.2391 77.1522 14.9376 75.1614C13.1526 74.1808 10.6026 71.7619 14.8738 71.6966C16.5047 71.8781 18.0689 72.4601 19.4339 73.3932C20.7989 74.3264 21.9244 75.5832 22.7151 77.0572C23.4126 78.3422 24.3505 79.4734 25.4751 80.3861C26.5997 81.2987 27.8888 81.9748 29.2687 82.3756C30.6485 82.7764 32.0919 82.8941 33.5162 82.7219C34.9404 82.5496 36.3175 82.0909 37.5686 81.3719C37.7894 78.7131 38.9449 76.2272 40.8199 74.377C29.4725 73.0696 17.6151 68.5585 17.6151 48.5541C17.5434 43.3563 19.4138 38.3273 22.8426 34.4986C21.2834 29.981 21.4658 25.0233 23.3525 20.6391C23.3525 20.6391 27.6236 19.2662 37.3774 25.9999C45.7225 23.6462 54.5323 23.6462 62.8773 25.9999C72.6309 19.2009 76.9022 20.6391 76.9022 20.6391C78.7891 25.0233 78.9716 29.9811 77.4122 34.4986C80.8513 38.3207 82.7233 43.3541 82.6396 48.5541C82.6396 68.6239 70.7184 73.0696 59.371 74.377C60.5882 75.6421 61.5255 77.1609 62.1195 78.8304C62.7135 80.4999 62.9502 82.2809 62.8135 84.0525C62.8135 91.0477 62.7497 96.6697 62.7497 98.4349C62.7497 99.8078 62.2401 100.522 64.7901 99.9988C76.2582 96.0391 87.4467 88.949 93.6883 78.3179C99.9298 67.6869 102.284 55.1271 100.331 42.8807C98.3775 30.6342 92.2438 19.4982 83.0245 11.4605C73.8053 3.42272 62.1006 -0.993541 49.9999 -1Z" fill="white"/>
</g>
</g>
<defs>
<clipPath id="clip0_50_33">
<rect width="100" height="100" rx="50" fill="white"/>
</clipPath>
</defs>
</svg>
