<svg width="100" height="100" viewBox="0 0 100 100" fill="none" xmlns="http://www.w3.org/2000/svg">
<circle cx="50" cy="50" r="50" fill="#D9D9D9"/>
<path d="M89 30H77.2896C67.2271 30 61.8313 30.5789 57.6079 35.7507C53.8923 32.5051 49.2536 30.5259 44.3545 30.0959C39.4554 29.666 34.5468 30.8072 30.3302 33.3565C26.1135 35.9059 22.8046 39.7329 20.8764 44.2906C18.9482 48.8483 18.4993 53.9034 19.5939 58.7336C20.6885 63.5638 23.2705 67.9217 26.971 71.1847C30.6716 74.4476 35.3012 76.4486 40.1982 76.9016C45.0952 77.3545 50.009 76.2364 54.2374 73.7068C58.4658 71.1773 61.7924 67.3659 63.7417 62.8173C73.0225 62.1385 79.4625 56.5465 81.4896 47.6164C81.4896 47.6164 74.4925 49.3354 68.5688 47.6164C80.2879 45.3332 87.04 38.6921 89 30ZM35.3625 53.4963C35.3579 52.2365 35.6896 50.9986 36.3228 49.9122C36.9561 48.8259 37.8677 47.9311 38.962 47.3215C40.0564 46.7119 41.2933 46.41 42.5433 46.4474C43.7932 46.4849 45.0101 46.8602 46.0667 47.5341C46.3771 45.4358 47.4365 43.5237 49.0463 42.1561C50.6561 40.7886 52.7057 40.0595 54.8108 40.1055H54.8342C52.1508 45.3302 50.7304 49.9554 49.0067 55.5709C48.5149 57.1794 47.4665 58.5568 46.0522 59.4525C44.6378 60.3483 42.9514 60.703 41.2995 60.4521C39.6476 60.2013 38.1398 59.3616 37.0503 58.0857C35.9608 56.8098 35.3619 55.1824 35.3625 53.4993V53.4963ZM42.3217 30C37.7091 30 33.2001 31.378 29.3649 33.9598C25.5296 36.5417 22.5404 40.2113 20.7753 44.5047C19.0101 48.7981 18.5483 53.5224 19.4481 58.0803C20.348 62.6381 22.5692 66.8248 25.8308 70.1108C29.0924 73.3968 33.2479 75.6346 37.7718 76.5412C42.2958 77.4478 46.985 76.9825 51.2465 75.2041C55.508 73.4258 59.1503 70.4142 61.7129 66.5502C64.2755 62.6863 65.6433 58.1435 65.6433 53.4963C65.6433 47.2647 63.1862 41.2883 58.8126 36.8819C54.4389 32.4755 48.507 30 42.3217 30ZM42.3217 60.5429C40.9375 60.5429 39.5845 60.1293 38.4337 59.3544C37.2829 58.5796 36.3861 57.4782 35.8567 56.1898C35.3272 54.9013 35.189 53.4836 35.4595 52.116C35.7299 50.7483 36.3969 49.4922 37.3761 48.5066C38.3552 47.5209 39.6025 46.85 40.9602 46.5787C42.3179 46.3073 43.7249 46.4478 45.0034 46.9822C46.2818 47.5167 47.3742 48.4211 48.1424 49.5812C48.9105 50.7413 49.3199 52.1048 49.3188 53.4993C49.3195 54.4251 49.139 55.342 48.7876 56.1975C48.4362 57.0529 47.9208 57.8302 47.2709 58.4847C46.621 59.1392 45.8493 59.6582 45 60.0119C44.1508 60.3655 43.2406 60.5441 42.3217 60.5429Z" fill="black"/>
</svg>
