<svg width="100" height="100" viewBox="0 0 100 100" fill="none" xmlns="http://www.w3.org/2000/svg">
<rect x="5" y="5" width="90" height="90" rx="45" fill="black"/>
<path fill-rule="evenodd" clip-rule="evenodd" d="M100 50C100 77.6142 77.6142 100 50 100C22.3857 100 0 77.6142 0 50C0 22.3857 22.3857 0 50 0C77.6142 0 100 22.3857 100 50ZM51.7917 36.9122C46.9287 38.935 37.209 43.1217 22.633 49.4721C20.266 50.4133 19.0262 51.3342 18.9133 52.2346C18.7225 53.7562 20.628 54.3554 23.2229 55.1712C23.5758 55.2825 23.9416 55.3975 24.3165 55.5192C26.8694 56.3492 30.3035 57.32 32.0888 57.3583C33.7082 57.3933 35.5156 56.7258 37.5111 55.3554C51.13 46.1625 58.16 41.5159 58.6012 41.4157C58.9129 41.345 59.3442 41.2562 59.6367 41.516C59.9287 41.7758 59.9004 42.2679 59.8692 42.4C59.6804 43.2046 52.2004 50.1587 48.3296 53.7575C47.1229 54.8792 46.2671 55.675 46.0921 55.8567C45.7 56.2642 45.3004 56.6492 44.9167 57.0192C42.545 59.3054 40.7664 61.02 45.015 63.82C47.0571 65.1654 48.6908 66.2779 50.3208 67.3879C52.1008 68.6004 53.8762 69.8096 56.1733 71.3154C56.7587 71.6992 57.3175 72.0975 57.8621 72.4854C59.9337 73.9625 61.795 75.2892 64.0942 75.0775C65.4304 74.9546 66.8104 73.6983 67.5112 69.9517C69.1675 61.0967 72.4233 41.9104 73.1758 34.0041C73.2421 33.3114 73.1592 32.4249 73.0925 32.0357C73.0258 31.6466 72.8867 31.0921 72.3808 30.6817C71.7817 30.1956 70.8571 30.0931 70.4433 30.1003C68.5625 30.1335 65.6775 31.1367 51.7917 36.9122Z" fill="white"/>
</svg>
