<svg width="100" height="100" viewBox="0 0 100 100" fill="none" xmlns="http://www.w3.org/2000/svg">
<circle cx="50" cy="50" r="50" fill="black"/>
<mask id="mask0_60_44" style="mask-type:alpha" maskUnits="userSpaceOnUse" x="0" y="0" width="100" height="100">
<rect width="100" height="100" rx="50" fill="#D9D9D9"/>
</mask>
<g mask="url(#mask0_60_44)">
<path d="M95 0H5C3.67392 0 2.40215 0.526784 1.46447 1.46447C0.526784 2.40215 0 3.67392 0 5V95C0 96.3261 0.526784 97.5979 1.46447 98.5355C2.40215 99.4732 3.67392 100 5 100H95C96.3261 100 97.5979 99.4732 98.5355 98.5355C99.4732 97.5979 100 96.3261 100 95V5C100 3.67392 99.4732 2.40215 98.5355 1.46447C97.5979 0.526784 96.3261 0 95 0ZM78.595 43.625C78.05 43.68 77.5 43.705 76.955 43.71C73.9885 43.7139 71.0677 42.9785 68.4567 41.5704C65.8456 40.1623 63.6266 38.1258 62 35.645V63.11C62.001 67.1264 60.8108 71.0528 58.5801 74.3927C56.3493 77.7326 53.1782 80.336 49.4677 81.8734C45.7572 83.4109 41.6742 83.8134 37.7349 83.0301C33.7957 82.2468 30.1772 80.3128 27.3372 77.4728C24.4972 74.6328 22.5632 71.0143 21.7799 67.0751C20.9966 63.1358 21.3991 59.0528 22.9366 55.3423C24.474 51.6318 27.0774 48.4607 30.4173 46.2299C33.7572 43.9992 37.6836 42.809 41.7 42.81C42.125 42.81 42.535 42.85 42.955 42.875V52.875C41.5561 52.7056 40.1373 52.824 38.7859 53.223C37.4344 53.622 36.1788 54.2931 35.0962 55.1952C34.0137 56.0972 33.127 57.2111 32.4908 58.4684C31.8545 59.7257 31.4821 61.0999 31.3964 62.5064C31.3107 63.9129 31.5135 65.3221 31.9924 66.6474C32.4713 67.9726 33.2161 69.1859 34.1811 70.2128C35.1461 71.2396 36.3109 72.0582 37.604 72.6184C38.897 73.1785 40.2909 73.4683 41.7 73.47C44.4808 73.5203 47.1703 72.4772 49.19 70.5651C51.2097 68.6529 52.3983 66.0244 52.5 63.245L52.6 16.59H62.17C62.6069 20.7473 64.4915 24.6186 67.494 27.527C70.4965 30.4354 74.4259 32.1957 78.595 32.5V43.625Z" fill="white"/>
</g>
</svg>
