<svg width="100" height="100" viewBox="0 0 100 100" fill="none" xmlns="http://www.w3.org/2000/svg">
<circle cx="50" cy="50" r="50" fill="black"/>
<path d="M50 0C22.3854 0 0 22.3854 0 50C0 77.6146 22.3854 100 50 100C77.6146 100 100 77.6146 100 50C100 22.3854 77.6146 0 50 0ZM69.2292 56.4115C69.2292 56.4115 73.651 60.776 74.7396 62.8021C74.7708 62.8438 74.7865 62.8854 74.7969 62.9062C75.2396 63.651 75.3438 64.2292 75.125 64.6615C74.7604 65.3802 73.5104 65.7344 73.0833 65.7656H65.2708C64.7292 65.7656 63.5937 65.625 62.2187 64.6771C61.1615 63.9375 60.1198 62.724 59.1042 61.5417C57.5885 59.7812 56.276 58.2604 54.9531 58.2604C54.7851 58.2601 54.6181 58.2865 54.4583 58.3385C53.4583 58.6615 52.1771 60.0885 52.1771 63.8906C52.1771 65.0781 51.2396 65.7604 50.5781 65.7604H47C45.7812 65.7604 39.4323 65.3333 33.8073 59.401C26.9219 52.1354 20.724 37.5625 20.6719 37.4271C20.2812 36.4844 21.0885 35.9792 21.9687 35.9792H29.8594C30.9115 35.9792 31.2552 36.6198 31.4948 37.1875C31.776 37.849 32.8073 40.4792 34.5 43.4375C37.2448 48.2604 38.9271 50.2187 40.276 50.2187C40.529 50.2158 40.7774 50.1514 41 50.0312C42.7604 49.0521 42.4323 42.776 42.3542 41.474C42.3542 41.2292 42.349 38.6667 41.4479 37.4375C40.8021 36.5469 39.7031 36.2083 39.0365 36.0833C39.3063 35.711 39.6618 35.4091 40.0729 35.2031C41.2812 34.599 43.4583 34.5104 45.6198 34.5104H46.8229C49.1667 34.5417 49.7708 34.6927 50.6198 34.9062C52.3385 35.3177 52.375 36.4271 52.224 40.224C52.1771 41.3021 52.1302 42.5208 52.1302 43.9583C52.1302 44.2708 52.1146 44.6042 52.1146 44.9583C52.0625 46.8906 52 49.0833 53.3646 49.9844C53.5426 50.096 53.7482 50.1555 53.9583 50.1562C54.4323 50.1562 55.8594 50.1562 59.724 43.526C60.9158 41.392 61.9515 39.1744 62.8229 36.8906C62.901 36.7552 63.1302 36.3385 63.401 36.1771C63.6009 36.0752 63.8225 36.0234 64.0469 36.026H73.3229C74.3333 36.026 75.026 36.1771 75.1562 36.5677C75.3854 37.1875 75.1146 39.0781 70.8802 44.8125L68.9896 47.3073C65.151 52.3385 65.151 52.5938 69.2292 56.4115Z" fill="white"/>
</svg>
