<svg width="84" height="84" viewBox="0 0 84 84" fill="none" xmlns="http://www.w3.org/2000/svg">
<path d="M41.6667 1.43558e-07C33.4258 1.43558e-07 25.37 2.44371 18.5179 7.0221C11.6659 11.6005 6.32536 18.1079 3.17171 25.7215C0.0180535 33.3351 -0.807086 41.7129 0.800632 49.7954C2.40835 57.878 6.37672 65.3023 12.2039 71.1294C18.0311 76.9566 25.4554 80.925 33.5379 82.5327C41.6205 84.1404 49.9982 83.3153 57.6118 80.1617C65.2254 77.008 71.7329 71.6675 76.3112 64.8154C80.8896 57.9634 83.3334 49.9076 83.3334 41.6667C83.3338 36.1948 82.2564 30.7764 80.1626 25.721C78.0688 20.6655 74.9997 16.0721 71.1305 12.2029C67.2613 8.33367 62.6678 5.26455 57.6124 3.17076C52.5569 1.07698 47.1386 -0.000454078 41.6667 1.43558e-07ZM54.9146 63.1353C54.7587 63.5242 54.5214 63.8752 54.2187 64.1649C53.916 64.4545 53.5548 64.6762 53.1595 64.8148C52.7641 64.9535 52.3436 65.0061 51.9263 64.969C51.509 64.932 51.1044 64.8061 50.7397 64.5999L39.4285 55.8108L32.1689 62.5083C32.0004 62.6328 31.8034 62.7129 31.5958 62.7412C31.3883 62.7696 31.177 62.7453 30.9814 62.6706L32.373 50.2187L32.4176 50.254L32.446 50.0082C32.446 50.0082 52.8002 31.4769 53.6294 30.6873C54.4688 29.8998 54.1919 29.729 54.1919 29.729C54.2396 28.7685 52.6855 29.729 52.6855 29.729L25.7167 47.0792L14.4855 43.2542C14.4855 43.2542 12.7605 42.6354 12.598 41.275C12.4271 39.925 14.5417 39.1917 14.5417 39.1917L59.1959 21.452C59.1959 21.452 62.8667 19.8165 62.8667 22.525L54.9146 63.1353Z" fill="white"/>
</svg>
